<mxfile host="app.diagrams.net" modified="2023-07-12T13:48:04.515Z" agent="Mozilla/5.0 (Windows NT 10.0; Win64; x64) AppleWebKit/537.36 (KHTML, like Gecko) Chrome/114.0.0.0 Safari/537.36" etag="uoiPwMM-Phdybztepl4U" version="21.3.8" type="github">
  <diagram name="Page-1" id="MOXP-pCVDMppEyaVAeaV">
    <mxGraphModel dx="1290" dy="549" grid="1" gridSize="10" guides="1" tooltips="1" connect="1" arrows="1" fold="1" page="1" pageScale="1" pageWidth="850" pageHeight="1100" math="0" shadow="0">
      <root>
        <mxCell id="0" />
        <mxCell id="1" parent="0" />
        <mxCell id="CVq84EfsiKIbpJtznQB--6" style="edgeStyle=orthogonalEdgeStyle;rounded=0;orthogonalLoop=1;jettySize=auto;html=1;" parent="1" source="CVq84EfsiKIbpJtznQB--5" target="CVq84EfsiKIbpJtznQB--7" edge="1">
          <mxGeometry relative="1" as="geometry">
            <mxPoint x="395" y="120" as="targetPoint" />
          </mxGeometry>
        </mxCell>
        <mxCell id="CVq84EfsiKIbpJtznQB--5" value="" style="rounded=0;whiteSpace=wrap;html=1;" parent="1" vertex="1">
          <mxGeometry x="80" y="4" width="670" height="64" as="geometry" />
        </mxCell>
        <mxCell id="CVq84EfsiKIbpJtznQB--1" value="" style="sketch=0;outlineConnect=0;fontColor=#232F3E;gradientColor=none;fillColor=#232F3D;strokeColor=none;dashed=0;verticalLabelPosition=bottom;verticalAlign=top;align=center;html=1;fontSize=12;fontStyle=0;aspect=fixed;pointerEvents=1;shape=mxgraph.aws4.users;" parent="1" vertex="1">
          <mxGeometry x="141.04" y="19" width="40" height="40" as="geometry" />
        </mxCell>
        <mxCell id="CVq84EfsiKIbpJtznQB--2" value="" style="sketch=0;html=1;dashed=0;whitespace=wrap;fillColor=#2875E2;strokeColor=#ffffff;points=[[0.005,0.63,0],[0.1,0.2,0],[0.9,0.2,0],[0.5,0,0],[0.995,0.63,0],[0.72,0.99,0],[0.5,1,0],[0.28,0.99,0]];verticalLabelPosition=bottom;align=center;verticalAlign=top;shape=mxgraph.kubernetes.icon;prIcon=api" parent="1" vertex="1">
          <mxGeometry x="281.04" y="11" width="50" height="48" as="geometry" />
        </mxCell>
        <mxCell id="CVq84EfsiKIbpJtznQB--4" value="" style="sketch=0;html=1;aspect=fixed;strokeColor=none;shadow=0;align=center;fillColor=#2D9C5E;verticalAlign=top;labelPosition=center;verticalLabelPosition=bottom;shape=mxgraph.gcp2.external_data_resource" parent="1" vertex="1">
          <mxGeometry x="651.04" y="10" width="37.92" height="48" as="geometry" />
        </mxCell>
        <mxCell id="CVq84EfsiKIbpJtznQB--11" style="edgeStyle=orthogonalEdgeStyle;rounded=0;orthogonalLoop=1;jettySize=auto;html=1;exitX=0.5;exitY=1;exitDx=0;exitDy=0;entryX=0.5;entryY=0;entryDx=0;entryDy=0;" parent="1" source="CVq84EfsiKIbpJtznQB--7" target="CVq84EfsiKIbpJtznQB--9" edge="1">
          <mxGeometry relative="1" as="geometry" />
        </mxCell>
        <mxCell id="CVq84EfsiKIbpJtznQB--7" value="Proxy + Dapr handling" style="rhombus;whiteSpace=wrap;html=1;" parent="1" vertex="1">
          <mxGeometry x="375" y="100" width="155" height="80" as="geometry" />
        </mxCell>
        <mxCell id="p30hCLK2cFXqgigR1p2l-44" style="edgeStyle=orthogonalEdgeStyle;rounded=0;orthogonalLoop=1;jettySize=auto;html=1;entryX=0;entryY=0;entryDx=0;entryDy=90.75;entryPerimeter=0;startArrow=classicThin;startFill=1;" parent="1" source="CVq84EfsiKIbpJtznQB--9" target="p30hCLK2cFXqgigR1p2l-43" edge="1">
          <mxGeometry relative="1" as="geometry" />
        </mxCell>
        <mxCell id="CVq84EfsiKIbpJtznQB--9" value="" style="rounded=0;whiteSpace=wrap;html=1;" parent="1" vertex="1">
          <mxGeometry x="50" y="240" width="750" height="570" as="geometry" />
        </mxCell>
        <mxCell id="CVq84EfsiKIbpJtznQB--12" value="Load Balancer" style="rounded=1;whiteSpace=wrap;html=1;" parent="1" vertex="1">
          <mxGeometry x="270" y="220" width="120" height="20" as="geometry" />
        </mxCell>
        <mxCell id="CVq84EfsiKIbpJtznQB--20" value="" style="sketch=0;html=1;dashed=0;whitespace=wrap;fillColor=#2875E2;strokeColor=#ffffff;points=[[0.005,0.63,0],[0.1,0.2,0],[0.9,0.2,0],[0.5,0,0],[0.995,0.63,0],[0.72,0.99,0],[0.5,1,0],[0.28,0.99,0]];verticalLabelPosition=bottom;align=center;verticalAlign=top;shape=mxgraph.kubernetes.icon;prIcon=cronjob" parent="1" vertex="1">
          <mxGeometry x="451.04" y="12" width="50" height="48" as="geometry" />
        </mxCell>
        <mxCell id="CVq84EfsiKIbpJtznQB--46" value="" style="edgeStyle=orthogonalEdgeStyle;rounded=0;orthogonalLoop=1;jettySize=auto;html=1;" parent="1" source="CVq84EfsiKIbpJtznQB--25" target="CVq84EfsiKIbpJtznQB--44" edge="1">
          <mxGeometry relative="1" as="geometry" />
        </mxCell>
        <mxCell id="CVq84EfsiKIbpJtznQB--25" value="RunGraphAPI&lt;br&gt;CancelPipeAPI&lt;br&gt;CancelAllInstancesAPI" style="rounded=1;whiteSpace=wrap;html=1;" parent="1" vertex="1">
          <mxGeometry x="180.51999999999998" y="369" width="130" height="60" as="geometry" />
        </mxCell>
        <mxCell id="yTJ_lDOdrDvtbO3VLuqi-4" style="edgeStyle=orthogonalEdgeStyle;rounded=0;orthogonalLoop=1;jettySize=auto;html=1;" edge="1" parent="1" source="CVq84EfsiKIbpJtznQB--31" target="p30hCLK2cFXqgigR1p2l-4">
          <mxGeometry relative="1" as="geometry" />
        </mxCell>
        <mxCell id="CVq84EfsiKIbpJtznQB--31" value="" style="shape=table;startSize=0;container=1;collapsible=0;childLayout=tableLayout;fillColor=#ffff88;strokeColor=#36393d;" parent="1" vertex="1">
          <mxGeometry x="83.49999999999999" y="510" width="170" height="50" as="geometry" />
        </mxCell>
        <mxCell id="CVq84EfsiKIbpJtznQB--32" value="" style="shape=tableRow;horizontal=0;startSize=0;swimlaneHead=0;swimlaneBody=0;strokeColor=inherit;top=0;left=0;bottom=0;right=0;collapsible=0;dropTarget=0;fillColor=none;points=[[0,0.5],[1,0.5]];portConstraint=eastwest;" parent="CVq84EfsiKIbpJtznQB--31" vertex="1">
          <mxGeometry width="170" height="25" as="geometry" />
        </mxCell>
        <mxCell id="CVq84EfsiKIbpJtznQB--33" value="P1&lt;br&gt;" style="shape=partialRectangle;html=1;whiteSpace=wrap;connectable=0;strokeColor=inherit;overflow=hidden;fillColor=none;top=0;left=0;bottom=0;right=0;pointerEvents=1;" parent="CVq84EfsiKIbpJtznQB--32" vertex="1">
          <mxGeometry width="34" height="25" as="geometry">
            <mxRectangle width="34" height="25" as="alternateBounds" />
          </mxGeometry>
        </mxCell>
        <mxCell id="CVq84EfsiKIbpJtznQB--34" value="P2" style="shape=partialRectangle;html=1;whiteSpace=wrap;connectable=0;strokeColor=inherit;overflow=hidden;fillColor=none;top=0;left=0;bottom=0;right=0;pointerEvents=1;" parent="CVq84EfsiKIbpJtznQB--32" vertex="1">
          <mxGeometry x="34" width="34" height="25" as="geometry">
            <mxRectangle width="34" height="25" as="alternateBounds" />
          </mxGeometry>
        </mxCell>
        <mxCell id="CVq84EfsiKIbpJtznQB--35" value="P1" style="shape=partialRectangle;html=1;whiteSpace=wrap;connectable=0;strokeColor=inherit;overflow=hidden;fillColor=none;top=0;left=0;bottom=0;right=0;pointerEvents=1;" parent="CVq84EfsiKIbpJtznQB--32" vertex="1">
          <mxGeometry x="68" width="34" height="25" as="geometry">
            <mxRectangle width="34" height="25" as="alternateBounds" />
          </mxGeometry>
        </mxCell>
        <mxCell id="CVq84EfsiKIbpJtznQB--36" value="P1" style="shape=partialRectangle;html=1;whiteSpace=wrap;connectable=0;strokeColor=inherit;overflow=hidden;fillColor=none;top=0;left=0;bottom=0;right=0;pointerEvents=1;" parent="CVq84EfsiKIbpJtznQB--32" vertex="1">
          <mxGeometry x="102" width="34" height="25" as="geometry">
            <mxRectangle width="34" height="25" as="alternateBounds" />
          </mxGeometry>
        </mxCell>
        <mxCell id="CVq84EfsiKIbpJtznQB--37" value="P2" style="shape=partialRectangle;html=1;whiteSpace=wrap;connectable=0;strokeColor=inherit;overflow=hidden;fillColor=none;top=0;left=0;bottom=0;right=0;pointerEvents=1;" parent="CVq84EfsiKIbpJtznQB--32" vertex="1">
          <mxGeometry x="136" width="34" height="25" as="geometry">
            <mxRectangle width="34" height="25" as="alternateBounds" />
          </mxGeometry>
        </mxCell>
        <mxCell id="CVq84EfsiKIbpJtznQB--38" value="" style="shape=tableRow;horizontal=0;startSize=0;swimlaneHead=0;swimlaneBody=0;strokeColor=inherit;top=0;left=0;bottom=0;right=0;collapsible=0;dropTarget=0;fillColor=none;points=[[0,0.5],[1,0.5]];portConstraint=eastwest;" parent="CVq84EfsiKIbpJtznQB--31" vertex="1">
          <mxGeometry y="25" width="170" height="25" as="geometry" />
        </mxCell>
        <mxCell id="CVq84EfsiKIbpJtznQB--39" value="P3" style="shape=partialRectangle;html=1;whiteSpace=wrap;connectable=0;strokeColor=inherit;overflow=hidden;fillColor=none;top=0;left=0;bottom=0;right=0;pointerEvents=1;" parent="CVq84EfsiKIbpJtznQB--38" vertex="1">
          <mxGeometry width="34" height="25" as="geometry">
            <mxRectangle width="34" height="25" as="alternateBounds" />
          </mxGeometry>
        </mxCell>
        <mxCell id="CVq84EfsiKIbpJtznQB--40" value="P3" style="shape=partialRectangle;html=1;whiteSpace=wrap;connectable=0;strokeColor=inherit;overflow=hidden;fillColor=none;top=0;left=0;bottom=0;right=0;pointerEvents=1;" parent="CVq84EfsiKIbpJtznQB--38" vertex="1">
          <mxGeometry x="34" width="34" height="25" as="geometry">
            <mxRectangle width="34" height="25" as="alternateBounds" />
          </mxGeometry>
        </mxCell>
        <mxCell id="CVq84EfsiKIbpJtznQB--41" value="P4" style="shape=partialRectangle;html=1;whiteSpace=wrap;connectable=0;strokeColor=inherit;overflow=hidden;fillColor=none;top=0;left=0;bottom=0;right=0;pointerEvents=1;" parent="CVq84EfsiKIbpJtznQB--38" vertex="1">
          <mxGeometry x="68" width="34" height="25" as="geometry">
            <mxRectangle width="34" height="25" as="alternateBounds" />
          </mxGeometry>
        </mxCell>
        <mxCell id="CVq84EfsiKIbpJtznQB--42" value="" style="shape=partialRectangle;html=1;whiteSpace=wrap;connectable=0;strokeColor=inherit;overflow=hidden;fillColor=none;top=0;left=0;bottom=0;right=0;pointerEvents=1;" parent="CVq84EfsiKIbpJtznQB--38" vertex="1">
          <mxGeometry x="102" width="34" height="25" as="geometry">
            <mxRectangle width="34" height="25" as="alternateBounds" />
          </mxGeometry>
        </mxCell>
        <mxCell id="CVq84EfsiKIbpJtznQB--43" value="" style="shape=partialRectangle;html=1;whiteSpace=wrap;connectable=0;strokeColor=inherit;overflow=hidden;fillColor=none;top=0;left=0;bottom=0;right=0;pointerEvents=1;" parent="CVq84EfsiKIbpJtznQB--38" vertex="1">
          <mxGeometry x="136" width="34" height="25" as="geometry">
            <mxRectangle width="34" height="25" as="alternateBounds" />
          </mxGeometry>
        </mxCell>
        <mxCell id="CVq84EfsiKIbpJtznQB--44" value="RunGraphAPI Call" style="rounded=1;whiteSpace=wrap;html=1;" parent="1" vertex="1">
          <mxGeometry x="84.54" y="489" width="120" height="20" as="geometry" />
        </mxCell>
        <mxCell id="9WHqVot7EANsSnxxSBrx-16" value="" style="group" parent="1" vertex="1" connectable="0">
          <mxGeometry x="190.51999999999998" y="300" width="110" height="64" as="geometry" />
        </mxCell>
        <mxCell id="CVq84EfsiKIbpJtznQB--13" value="EDM Web API" style="shape=hexagon;perimeter=hexagonPerimeter2;whiteSpace=wrap;html=1;fixedSize=1;size=10;" parent="9WHqVot7EANsSnxxSBrx-16" vertex="1">
          <mxGeometry width="100" height="45" as="geometry" />
        </mxCell>
        <mxCell id="CVq84EfsiKIbpJtznQB--21" value="" style="sketch=0;html=1;dashed=0;whitespace=wrap;fillColor=#2875E2;strokeColor=#ffffff;points=[[0.005,0.63,0],[0.1,0.2,0],[0.9,0.2,0],[0.5,0,0],[0.995,0.63,0],[0.72,0.99,0],[0.5,1,0],[0.28,0.99,0]];verticalLabelPosition=bottom;align=center;verticalAlign=top;shape=mxgraph.kubernetes.icon;prIcon=pod" parent="9WHqVot7EANsSnxxSBrx-16" vertex="1">
          <mxGeometry x="80" y="30" width="30" height="34" as="geometry" />
        </mxCell>
        <mxCell id="9WHqVot7EANsSnxxSBrx-21" value="" style="group;" parent="1" vertex="1" connectable="0">
          <mxGeometry x="670" y="260" width="120" height="93" as="geometry" />
        </mxCell>
        <mxCell id="CVq84EfsiKIbpJtznQB--19" value="&lt;font style=&quot;font-size: 15px;&quot;&gt;Will Scale using Kubernets&lt;/font&gt;" style="shape=document;whiteSpace=wrap;html=1;boundedLbl=1;movable=1;resizable=1;rotatable=1;deletable=1;editable=1;locked=0;connectable=1;fillColor=#d5e8d4;strokeColor=#82b366;" parent="9WHqVot7EANsSnxxSBrx-21" vertex="1">
          <mxGeometry width="120" height="80" as="geometry" />
        </mxCell>
        <mxCell id="CVq84EfsiKIbpJtznQB--18" value="" style="sketch=0;html=1;dashed=0;whitespace=wrap;fillColor=#2875E2;strokeColor=#ffffff;points=[[0.005,0.63,0],[0.1,0.2,0],[0.9,0.2,0],[0.5,0,0],[0.995,0.63,0],[0.72,0.99,0],[0.5,1,0],[0.28,0.99,0]];verticalLabelPosition=bottom;align=center;verticalAlign=top;shape=mxgraph.kubernetes.icon;prIcon=job" parent="9WHqVot7EANsSnxxSBrx-21" vertex="1">
          <mxGeometry x="70" y="45" width="50" height="48" as="geometry" />
        </mxCell>
        <mxCell id="ERThmsmV8_UrYjw-Gq1N-9" value="&lt;font style=&quot;font-size: 14px;&quot;&gt;Hangfire SQL Server&amp;nbsp;&lt;/font&gt;" style="shape=cylinder3;whiteSpace=wrap;html=1;boundedLbl=1;backgroundOutline=1;size=15;fillColor=#1ba1e2;fontColor=#ffffff;strokeColor=#006EAF;" parent="1" vertex="1">
          <mxGeometry x="580" y="570" width="80" height="110" as="geometry" />
        </mxCell>
        <mxCell id="yTJ_lDOdrDvtbO3VLuqi-3" style="edgeStyle=orthogonalEdgeStyle;rounded=0;orthogonalLoop=1;jettySize=auto;html=1;exitX=1;exitY=0.5;exitDx=0;exitDy=0;" edge="1" parent="1" source="ERThmsmV8_UrYjw-Gq1N-15" target="ERThmsmV8_UrYjw-Gq1N-9">
          <mxGeometry relative="1" as="geometry" />
        </mxCell>
        <mxCell id="ERThmsmV8_UrYjw-Gq1N-15" value="Hangfire C# Code API calls" style="rounded=1;whiteSpace=wrap;html=1;" parent="1" vertex="1">
          <mxGeometry x="235.51999999999998" y="625" width="208.96" height="20" as="geometry" />
        </mxCell>
        <mxCell id="ERThmsmV8_UrYjw-Gq1N-58" value="Hangfire Queues" style="rounded=1;whiteSpace=wrap;html=1;fillColor=#1ba1e2;fontColor=#ffffff;strokeColor=#006EAF;" parent="1" vertex="1">
          <mxGeometry x="530" y="680" width="207.92" height="40" as="geometry" />
        </mxCell>
        <mxCell id="ERThmsmV8_UrYjw-Gq1N-74" value="" style="rounded=0;whiteSpace=wrap;html=1;" parent="1" vertex="1">
          <mxGeometry x="83.5" y="1162" width="890" height="650" as="geometry" />
        </mxCell>
        <mxCell id="g4c7lUzqBWqTi5ui5CZP-1" value="During EDM initialisation, multiple kubernetes deployment templates will run" style="rounded=1;whiteSpace=wrap;html=1;fontSize=18;" parent="1" vertex="1">
          <mxGeometry x="170" y="1192" width="700" height="60" as="geometry" />
        </mxCell>
        <mxCell id="g4c7lUzqBWqTi5ui5CZP-2" value="&lt;div&gt;Hangfire edm jobs server 1&lt;/div&gt;&lt;div&gt;&lt;/div&gt;( Q.edm_jobs&lt;span style=&quot;background-color: initial;&quot;&gt;&amp;nbsp;)&lt;/span&gt;" style="rounded=1;whiteSpace=wrap;html=1;" parent="1" vertex="1">
          <mxGeometry x="260" y="1292.5" width="160" height="80" as="geometry" />
        </mxCell>
        <mxCell id="g4c7lUzqBWqTi5ui5CZP-3" value="" style="group;" parent="1" vertex="1" connectable="0">
          <mxGeometry x="120" y="1342" width="120" height="93" as="geometry" />
        </mxCell>
        <mxCell id="g4c7lUzqBWqTi5ui5CZP-4" value="&lt;font style=&quot;font-size: 15px;&quot;&gt;Will Scale using Kubernets&lt;/font&gt;" style="shape=document;whiteSpace=wrap;html=1;boundedLbl=1;movable=1;resizable=1;rotatable=1;deletable=1;editable=1;locked=0;connectable=1;fillColor=#d5e8d4;strokeColor=#82b366;" parent="g4c7lUzqBWqTi5ui5CZP-3" vertex="1">
          <mxGeometry width="120" height="80" as="geometry" />
        </mxCell>
        <mxCell id="g4c7lUzqBWqTi5ui5CZP-5" value="" style="sketch=0;html=1;dashed=0;whitespace=wrap;fillColor=#2875E2;strokeColor=#ffffff;points=[[0.005,0.63,0],[0.1,0.2,0],[0.9,0.2,0],[0.5,0,0],[0.995,0.63,0],[0.72,0.99,0],[0.5,1,0],[0.28,0.99,0]];verticalLabelPosition=bottom;align=center;verticalAlign=top;shape=mxgraph.kubernetes.icon;prIcon=job" parent="g4c7lUzqBWqTi5ui5CZP-3" vertex="1">
          <mxGeometry x="70" y="45" width="50" height="48" as="geometry" />
        </mxCell>
        <mxCell id="g4c7lUzqBWqTi5ui5CZP-6" value="&lt;div style=&quot;border-color: var(--border-color);&quot;&gt;Hangfire edm jobs server 2&lt;/div&gt;&lt;div style=&quot;border-color: var(--border-color);&quot;&gt;&lt;/div&gt;( Q.edm_jobs&amp;nbsp;)" style="rounded=1;whiteSpace=wrap;html=1;" parent="1" vertex="1">
          <mxGeometry x="260" y="1377.5" width="160" height="80" as="geometry" />
        </mxCell>
        <mxCell id="g4c7lUzqBWqTi5ui5CZP-7" value="&lt;div style=&quot;border-color: var(--border-color);&quot;&gt;Hangfire edm jobs server 2&lt;/div&gt;&lt;div style=&quot;border-color: var(--border-color);&quot;&gt;&lt;/div&gt;( Q.edm_jobs&amp;nbsp;)" style="rounded=1;whiteSpace=wrap;html=1;" parent="1" vertex="1">
          <mxGeometry x="260" y="1462" width="160" height="80" as="geometry" />
        </mxCell>
        <mxCell id="g4c7lUzqBWqTi5ui5CZP-8" value="" style="shape=table;startSize=0;container=1;collapsible=0;childLayout=tableLayout;" parent="1" vertex="1">
          <mxGeometry x="450" y="1288" width="490" height="254" as="geometry" />
        </mxCell>
        <mxCell id="g4c7lUzqBWqTi5ui5CZP-9" value="" style="shape=tableRow;horizontal=0;startSize=0;swimlaneHead=0;swimlaneBody=0;strokeColor=inherit;top=0;left=0;bottom=0;right=0;collapsible=0;dropTarget=0;fillColor=none;points=[[0,0.5],[1,0.5]];portConstraint=eastwest;" parent="g4c7lUzqBWqTi5ui5CZP-8" vertex="1">
          <mxGeometry width="490" height="85" as="geometry" />
        </mxCell>
        <mxCell id="g4c7lUzqBWqTi5ui5CZP-10" value="P1" style="shape=partialRectangle;html=1;whiteSpace=wrap;connectable=0;strokeColor=inherit;overflow=hidden;fillColor=none;top=0;left=0;bottom=0;right=0;pointerEvents=1;" parent="g4c7lUzqBWqTi5ui5CZP-9" vertex="1">
          <mxGeometry width="82" height="85" as="geometry">
            <mxRectangle width="82" height="85" as="alternateBounds" />
          </mxGeometry>
        </mxCell>
        <mxCell id="g4c7lUzqBWqTi5ui5CZP-11" value="P1" style="shape=partialRectangle;html=1;whiteSpace=wrap;connectable=0;strokeColor=inherit;overflow=hidden;fillColor=none;top=0;left=0;bottom=0;right=0;pointerEvents=1;" parent="g4c7lUzqBWqTi5ui5CZP-9" vertex="1">
          <mxGeometry x="82" width="81" height="85" as="geometry">
            <mxRectangle width="81" height="85" as="alternateBounds" />
          </mxGeometry>
        </mxCell>
        <mxCell id="g4c7lUzqBWqTi5ui5CZP-12" value="P1" style="shape=partialRectangle;html=1;whiteSpace=wrap;connectable=0;strokeColor=inherit;overflow=hidden;fillColor=none;top=0;left=0;bottom=0;right=0;pointerEvents=1;" parent="g4c7lUzqBWqTi5ui5CZP-9" vertex="1">
          <mxGeometry x="163" width="82" height="85" as="geometry">
            <mxRectangle width="82" height="85" as="alternateBounds" />
          </mxGeometry>
        </mxCell>
        <mxCell id="g4c7lUzqBWqTi5ui5CZP-13" value="P1" style="shape=partialRectangle;html=1;whiteSpace=wrap;connectable=0;strokeColor=inherit;overflow=hidden;fillColor=none;top=0;left=0;bottom=0;right=0;pointerEvents=1;" parent="g4c7lUzqBWqTi5ui5CZP-9" vertex="1">
          <mxGeometry x="245" width="82" height="85" as="geometry">
            <mxRectangle width="82" height="85" as="alternateBounds" />
          </mxGeometry>
        </mxCell>
        <mxCell id="g4c7lUzqBWqTi5ui5CZP-14" value="P1" style="shape=partialRectangle;html=1;whiteSpace=wrap;connectable=0;strokeColor=inherit;overflow=hidden;fillColor=none;top=0;left=0;bottom=0;right=0;pointerEvents=1;" parent="g4c7lUzqBWqTi5ui5CZP-9" vertex="1">
          <mxGeometry x="327" width="81" height="85" as="geometry">
            <mxRectangle width="81" height="85" as="alternateBounds" />
          </mxGeometry>
        </mxCell>
        <mxCell id="g4c7lUzqBWqTi5ui5CZP-15" value="&lt;font style=&quot;font-size: 24px;&quot;&gt;.........&lt;/font&gt;" style="shape=partialRectangle;html=1;whiteSpace=wrap;connectable=0;strokeColor=inherit;overflow=hidden;fillColor=none;top=0;left=0;bottom=0;right=0;pointerEvents=1;" parent="g4c7lUzqBWqTi5ui5CZP-9" vertex="1">
          <mxGeometry x="408" width="82" height="85" as="geometry">
            <mxRectangle width="82" height="85" as="alternateBounds" />
          </mxGeometry>
        </mxCell>
        <mxCell id="g4c7lUzqBWqTi5ui5CZP-16" value="" style="shape=tableRow;horizontal=0;startSize=0;swimlaneHead=0;swimlaneBody=0;strokeColor=inherit;top=0;left=0;bottom=0;right=0;collapsible=0;dropTarget=0;fillColor=none;points=[[0,0.5],[1,0.5]];portConstraint=eastwest;" parent="g4c7lUzqBWqTi5ui5CZP-8" vertex="1">
          <mxGeometry y="85" width="490" height="84" as="geometry" />
        </mxCell>
        <mxCell id="g4c7lUzqBWqTi5ui5CZP-17" value="P1" style="shape=partialRectangle;html=1;whiteSpace=wrap;connectable=0;strokeColor=inherit;overflow=hidden;fillColor=none;top=0;left=0;bottom=0;right=0;pointerEvents=1;" parent="g4c7lUzqBWqTi5ui5CZP-16" vertex="1">
          <mxGeometry width="82" height="84" as="geometry">
            <mxRectangle width="82" height="84" as="alternateBounds" />
          </mxGeometry>
        </mxCell>
        <mxCell id="g4c7lUzqBWqTi5ui5CZP-18" value="P6" style="shape=partialRectangle;html=1;whiteSpace=wrap;connectable=0;strokeColor=inherit;overflow=hidden;fillColor=none;top=0;left=0;bottom=0;right=0;pointerEvents=1;" parent="g4c7lUzqBWqTi5ui5CZP-16" vertex="1">
          <mxGeometry x="82" width="81" height="84" as="geometry">
            <mxRectangle width="81" height="84" as="alternateBounds" />
          </mxGeometry>
        </mxCell>
        <mxCell id="g4c7lUzqBWqTi5ui5CZP-19" value="P3" style="shape=partialRectangle;html=1;whiteSpace=wrap;connectable=0;strokeColor=inherit;overflow=hidden;fillColor=none;top=0;left=0;bottom=0;right=0;pointerEvents=1;" parent="g4c7lUzqBWqTi5ui5CZP-16" vertex="1">
          <mxGeometry x="163" width="82" height="84" as="geometry">
            <mxRectangle width="82" height="84" as="alternateBounds" />
          </mxGeometry>
        </mxCell>
        <mxCell id="g4c7lUzqBWqTi5ui5CZP-20" value="" style="shape=partialRectangle;html=1;whiteSpace=wrap;connectable=0;strokeColor=inherit;overflow=hidden;fillColor=none;top=0;left=0;bottom=0;right=0;pointerEvents=1;" parent="g4c7lUzqBWqTi5ui5CZP-16" vertex="1">
          <mxGeometry x="245" width="82" height="84" as="geometry">
            <mxRectangle width="82" height="84" as="alternateBounds" />
          </mxGeometry>
        </mxCell>
        <mxCell id="g4c7lUzqBWqTi5ui5CZP-21" value="" style="shape=partialRectangle;html=1;whiteSpace=wrap;connectable=0;strokeColor=inherit;overflow=hidden;fillColor=none;top=0;left=0;bottom=0;right=0;pointerEvents=1;" parent="g4c7lUzqBWqTi5ui5CZP-16" vertex="1">
          <mxGeometry x="327" width="81" height="84" as="geometry">
            <mxRectangle width="81" height="84" as="alternateBounds" />
          </mxGeometry>
        </mxCell>
        <mxCell id="g4c7lUzqBWqTi5ui5CZP-22" value="" style="shape=partialRectangle;html=1;whiteSpace=wrap;connectable=0;strokeColor=inherit;overflow=hidden;fillColor=none;top=0;left=0;bottom=0;right=0;pointerEvents=1;" parent="g4c7lUzqBWqTi5ui5CZP-16" vertex="1">
          <mxGeometry x="408" width="82" height="84" as="geometry">
            <mxRectangle width="82" height="84" as="alternateBounds" />
          </mxGeometry>
        </mxCell>
        <mxCell id="g4c7lUzqBWqTi5ui5CZP-23" value="" style="shape=tableRow;horizontal=0;startSize=0;swimlaneHead=0;swimlaneBody=0;strokeColor=inherit;top=0;left=0;bottom=0;right=0;collapsible=0;dropTarget=0;fillColor=none;points=[[0,0.5],[1,0.5]];portConstraint=eastwest;" parent="g4c7lUzqBWqTi5ui5CZP-8" vertex="1">
          <mxGeometry y="169" width="490" height="85" as="geometry" />
        </mxCell>
        <mxCell id="g4c7lUzqBWqTi5ui5CZP-24" value="P9" style="shape=partialRectangle;html=1;whiteSpace=wrap;connectable=0;strokeColor=inherit;overflow=hidden;fillColor=none;top=0;left=0;bottom=0;right=0;pointerEvents=1;" parent="g4c7lUzqBWqTi5ui5CZP-23" vertex="1">
          <mxGeometry width="82" height="85" as="geometry">
            <mxRectangle width="82" height="85" as="alternateBounds" />
          </mxGeometry>
        </mxCell>
        <mxCell id="g4c7lUzqBWqTi5ui5CZP-25" value="P1" style="shape=partialRectangle;html=1;whiteSpace=wrap;connectable=0;strokeColor=inherit;overflow=hidden;fillColor=none;top=0;left=0;bottom=0;right=0;pointerEvents=1;" parent="g4c7lUzqBWqTi5ui5CZP-23" vertex="1">
          <mxGeometry x="82" width="81" height="85" as="geometry">
            <mxRectangle width="81" height="85" as="alternateBounds" />
          </mxGeometry>
        </mxCell>
        <mxCell id="g4c7lUzqBWqTi5ui5CZP-26" value="P1" style="shape=partialRectangle;html=1;whiteSpace=wrap;connectable=0;strokeColor=inherit;overflow=hidden;fillColor=none;top=0;left=0;bottom=0;right=0;pointerEvents=1;" parent="g4c7lUzqBWqTi5ui5CZP-23" vertex="1">
          <mxGeometry x="163" width="82" height="85" as="geometry">
            <mxRectangle width="82" height="85" as="alternateBounds" />
          </mxGeometry>
        </mxCell>
        <mxCell id="g4c7lUzqBWqTi5ui5CZP-27" value="" style="shape=partialRectangle;html=1;whiteSpace=wrap;connectable=0;strokeColor=inherit;overflow=hidden;fillColor=none;top=0;left=0;bottom=0;right=0;pointerEvents=1;" parent="g4c7lUzqBWqTi5ui5CZP-23" vertex="1">
          <mxGeometry x="245" width="82" height="85" as="geometry">
            <mxRectangle width="82" height="85" as="alternateBounds" />
          </mxGeometry>
        </mxCell>
        <mxCell id="g4c7lUzqBWqTi5ui5CZP-28" value="" style="shape=partialRectangle;html=1;whiteSpace=wrap;connectable=0;strokeColor=inherit;overflow=hidden;fillColor=none;top=0;left=0;bottom=0;right=0;pointerEvents=1;" parent="g4c7lUzqBWqTi5ui5CZP-23" vertex="1">
          <mxGeometry x="327" width="81" height="85" as="geometry">
            <mxRectangle width="81" height="85" as="alternateBounds" />
          </mxGeometry>
        </mxCell>
        <mxCell id="g4c7lUzqBWqTi5ui5CZP-29" value="" style="shape=partialRectangle;html=1;whiteSpace=wrap;connectable=0;strokeColor=inherit;overflow=hidden;fillColor=none;top=0;left=0;bottom=0;right=0;pointerEvents=1;" parent="g4c7lUzqBWqTi5ui5CZP-23" vertex="1">
          <mxGeometry x="408" width="82" height="85" as="geometry">
            <mxRectangle width="82" height="85" as="alternateBounds" />
          </mxGeometry>
        </mxCell>
        <mxCell id="g4c7lUzqBWqTi5ui5CZP-30" value="&lt;div&gt;Hangfire Job Parallel Server 1&lt;/div&gt;&lt;div&gt;&lt;/div&gt;( Q.P2&lt;span style=&quot;background-color: initial;&quot;&gt;&amp;nbsp;)&lt;/span&gt;" style="rounded=1;whiteSpace=wrap;html=1;" parent="1" vertex="1">
          <mxGeometry x="279" y="1602" width="170" height="80" as="geometry" />
        </mxCell>
        <mxCell id="g4c7lUzqBWqTi5ui5CZP-31" value="&lt;div&gt;Hangfire Job Parallel Server 2&lt;/div&gt;&lt;div&gt;&lt;/div&gt;( Q.P4&lt;span style=&quot;background-color: initial;&quot;&gt;&amp;nbsp;)&lt;/span&gt;" style="rounded=1;whiteSpace=wrap;html=1;" parent="1" vertex="1">
          <mxGeometry x="281" y="1702" width="170" height="80" as="geometry" />
        </mxCell>
        <mxCell id="g4c7lUzqBWqTi5ui5CZP-33" value="Will not scale&amp;nbsp;" style="shape=step;perimeter=stepPerimeter;whiteSpace=wrap;html=1;fixedSize=1;fillColor=#FF9999;strokeColor=#b85450;fontSize=15;" parent="1" vertex="1">
          <mxGeometry x="120" y="1672" width="130" height="40" as="geometry" />
        </mxCell>
        <mxCell id="g4c7lUzqBWqTi5ui5CZP-34" value="" style="shape=curlyBracket;whiteSpace=wrap;html=1;rounded=1;labelPosition=left;verticalLabelPosition=middle;align=right;verticalAlign=middle;" parent="1" vertex="1">
          <mxGeometry x="260" y="1609.5" width="20" height="165" as="geometry" />
        </mxCell>
        <mxCell id="g4c7lUzqBWqTi5ui5CZP-47" value="" style="shape=table;startSize=0;container=1;collapsible=0;childLayout=tableLayout;" parent="1" vertex="1">
          <mxGeometry x="470" y="1622" width="120" height="40" as="geometry" />
        </mxCell>
        <mxCell id="g4c7lUzqBWqTi5ui5CZP-48" value="" style="shape=tableRow;horizontal=0;startSize=0;swimlaneHead=0;swimlaneBody=0;strokeColor=inherit;top=0;left=0;bottom=0;right=0;collapsible=0;dropTarget=0;fillColor=none;points=[[0,0.5],[1,0.5]];portConstraint=eastwest;" parent="g4c7lUzqBWqTi5ui5CZP-47" vertex="1">
          <mxGeometry width="120" height="40" as="geometry" />
        </mxCell>
        <mxCell id="g4c7lUzqBWqTi5ui5CZP-49" value="P2" style="shape=partialRectangle;html=1;whiteSpace=wrap;connectable=0;strokeColor=inherit;overflow=hidden;fillColor=none;top=0;left=0;bottom=0;right=0;pointerEvents=1;" parent="g4c7lUzqBWqTi5ui5CZP-48" vertex="1">
          <mxGeometry width="60" height="40" as="geometry">
            <mxRectangle width="60" height="40" as="alternateBounds" />
          </mxGeometry>
        </mxCell>
        <mxCell id="g4c7lUzqBWqTi5ui5CZP-50" value="P2" style="shape=partialRectangle;html=1;whiteSpace=wrap;connectable=0;strokeColor=inherit;overflow=hidden;fillColor=none;top=0;left=0;bottom=0;right=0;pointerEvents=1;" parent="g4c7lUzqBWqTi5ui5CZP-48" vertex="1">
          <mxGeometry x="60" width="60" height="40" as="geometry">
            <mxRectangle width="60" height="40" as="alternateBounds" />
          </mxGeometry>
        </mxCell>
        <mxCell id="g4c7lUzqBWqTi5ui5CZP-51" value="" style="shape=table;startSize=0;container=1;collapsible=0;childLayout=tableLayout;" parent="1" vertex="1">
          <mxGeometry x="660" y="1622" width="320" height="40" as="geometry" />
        </mxCell>
        <mxCell id="g4c7lUzqBWqTi5ui5CZP-52" value="" style="shape=tableRow;horizontal=0;startSize=0;swimlaneHead=0;swimlaneBody=0;strokeColor=inherit;top=0;left=0;bottom=0;right=0;collapsible=0;dropTarget=0;fillColor=none;points=[[0,0.5],[1,0.5]];portConstraint=eastwest;" parent="g4c7lUzqBWqTi5ui5CZP-51" vertex="1">
          <mxGeometry width="320" height="40" as="geometry" />
        </mxCell>
        <mxCell id="g4c7lUzqBWqTi5ui5CZP-53" value="P2" style="shape=partialRectangle;html=1;whiteSpace=wrap;connectable=0;strokeColor=inherit;overflow=hidden;fillColor=none;top=0;left=0;bottom=0;right=0;pointerEvents=1;" parent="g4c7lUzqBWqTi5ui5CZP-52" vertex="1">
          <mxGeometry width="36" height="40" as="geometry">
            <mxRectangle width="36" height="40" as="alternateBounds" />
          </mxGeometry>
        </mxCell>
        <mxCell id="g4c7lUzqBWqTi5ui5CZP-54" value="P2" style="shape=partialRectangle;html=1;whiteSpace=wrap;connectable=0;strokeColor=inherit;overflow=hidden;fillColor=none;top=0;left=0;bottom=0;right=0;pointerEvents=1;" parent="g4c7lUzqBWqTi5ui5CZP-52" vertex="1">
          <mxGeometry x="36" width="35" height="40" as="geometry">
            <mxRectangle width="35" height="40" as="alternateBounds" />
          </mxGeometry>
        </mxCell>
        <mxCell id="g4c7lUzqBWqTi5ui5CZP-55" value="P2" style="shape=partialRectangle;html=1;whiteSpace=wrap;connectable=0;strokeColor=inherit;overflow=hidden;fillColor=none;top=0;left=0;bottom=0;right=0;pointerEvents=1;" parent="g4c7lUzqBWqTi5ui5CZP-52" vertex="1">
          <mxGeometry x="71" width="36" height="40" as="geometry">
            <mxRectangle width="36" height="40" as="alternateBounds" />
          </mxGeometry>
        </mxCell>
        <mxCell id="g4c7lUzqBWqTi5ui5CZP-56" value="P2" style="shape=partialRectangle;html=1;whiteSpace=wrap;connectable=0;strokeColor=inherit;overflow=hidden;fillColor=none;top=0;left=0;bottom=0;right=0;pointerEvents=1;" parent="g4c7lUzqBWqTi5ui5CZP-52" vertex="1">
          <mxGeometry x="107" width="35" height="40" as="geometry">
            <mxRectangle width="35" height="40" as="alternateBounds" />
          </mxGeometry>
        </mxCell>
        <mxCell id="g4c7lUzqBWqTi5ui5CZP-57" value="P2" style="shape=partialRectangle;html=1;whiteSpace=wrap;connectable=0;strokeColor=inherit;overflow=hidden;fillColor=none;top=0;left=0;bottom=0;right=0;pointerEvents=1;" parent="g4c7lUzqBWqTi5ui5CZP-52" vertex="1">
          <mxGeometry x="142" width="36" height="40" as="geometry">
            <mxRectangle width="36" height="40" as="alternateBounds" />
          </mxGeometry>
        </mxCell>
        <mxCell id="g4c7lUzqBWqTi5ui5CZP-58" value="P2" style="shape=partialRectangle;html=1;whiteSpace=wrap;connectable=0;strokeColor=inherit;overflow=hidden;fillColor=none;top=0;left=0;bottom=0;right=0;pointerEvents=1;" parent="g4c7lUzqBWqTi5ui5CZP-52" vertex="1">
          <mxGeometry x="178" width="35" height="40" as="geometry">
            <mxRectangle width="35" height="40" as="alternateBounds" />
          </mxGeometry>
        </mxCell>
        <mxCell id="g4c7lUzqBWqTi5ui5CZP-59" value="" style="shape=partialRectangle;html=1;whiteSpace=wrap;connectable=0;strokeColor=inherit;overflow=hidden;fillColor=none;top=0;left=0;bottom=0;right=0;pointerEvents=1;" parent="g4c7lUzqBWqTi5ui5CZP-52" vertex="1">
          <mxGeometry x="213" width="36" height="40" as="geometry">
            <mxRectangle width="36" height="40" as="alternateBounds" />
          </mxGeometry>
        </mxCell>
        <mxCell id="g4c7lUzqBWqTi5ui5CZP-60" value="" style="shape=partialRectangle;html=1;whiteSpace=wrap;connectable=0;strokeColor=inherit;overflow=hidden;fillColor=none;top=0;left=0;bottom=0;right=0;pointerEvents=1;" parent="g4c7lUzqBWqTi5ui5CZP-52" vertex="1">
          <mxGeometry x="249" width="35" height="40" as="geometry">
            <mxRectangle width="35" height="40" as="alternateBounds" />
          </mxGeometry>
        </mxCell>
        <mxCell id="g4c7lUzqBWqTi5ui5CZP-61" value="" style="shape=partialRectangle;html=1;whiteSpace=wrap;connectable=0;strokeColor=inherit;overflow=hidden;fillColor=none;top=0;left=0;bottom=0;right=0;pointerEvents=1;" parent="g4c7lUzqBWqTi5ui5CZP-52" vertex="1">
          <mxGeometry x="284" width="36" height="40" as="geometry">
            <mxRectangle width="36" height="40" as="alternateBounds" />
          </mxGeometry>
        </mxCell>
        <mxCell id="g4c7lUzqBWqTi5ui5CZP-62" value="" style="shape=table;startSize=0;container=1;collapsible=0;childLayout=tableLayout;" parent="1" vertex="1">
          <mxGeometry x="470" y="1712" width="60" height="40" as="geometry" />
        </mxCell>
        <mxCell id="g4c7lUzqBWqTi5ui5CZP-63" value="" style="shape=tableRow;horizontal=0;startSize=0;swimlaneHead=0;swimlaneBody=0;strokeColor=inherit;top=0;left=0;bottom=0;right=0;collapsible=0;dropTarget=0;fillColor=none;points=[[0,0.5],[1,0.5]];portConstraint=eastwest;" parent="g4c7lUzqBWqTi5ui5CZP-62" vertex="1">
          <mxGeometry width="60" height="40" as="geometry" />
        </mxCell>
        <mxCell id="g4c7lUzqBWqTi5ui5CZP-64" value="P4" style="shape=partialRectangle;html=1;whiteSpace=wrap;connectable=0;strokeColor=inherit;overflow=hidden;fillColor=none;top=0;left=0;bottom=0;right=0;pointerEvents=1;" parent="g4c7lUzqBWqTi5ui5CZP-63" vertex="1">
          <mxGeometry width="60" height="40" as="geometry">
            <mxRectangle width="60" height="40" as="alternateBounds" />
          </mxGeometry>
        </mxCell>
        <mxCell id="g4c7lUzqBWqTi5ui5CZP-65" value="" style="shape=table;startSize=0;container=1;collapsible=0;childLayout=tableLayout;" parent="1" vertex="1">
          <mxGeometry x="660" y="1712" width="320" height="40" as="geometry" />
        </mxCell>
        <mxCell id="g4c7lUzqBWqTi5ui5CZP-66" value="" style="shape=tableRow;horizontal=0;startSize=0;swimlaneHead=0;swimlaneBody=0;strokeColor=inherit;top=0;left=0;bottom=0;right=0;collapsible=0;dropTarget=0;fillColor=none;points=[[0,0.5],[1,0.5]];portConstraint=eastwest;" parent="g4c7lUzqBWqTi5ui5CZP-65" vertex="1">
          <mxGeometry width="320" height="40" as="geometry" />
        </mxCell>
        <mxCell id="g4c7lUzqBWqTi5ui5CZP-67" value="P4" style="shape=partialRectangle;html=1;whiteSpace=wrap;connectable=0;strokeColor=inherit;overflow=hidden;fillColor=none;top=0;left=0;bottom=0;right=0;pointerEvents=1;" parent="g4c7lUzqBWqTi5ui5CZP-66" vertex="1">
          <mxGeometry width="36" height="40" as="geometry">
            <mxRectangle width="36" height="40" as="alternateBounds" />
          </mxGeometry>
        </mxCell>
        <mxCell id="g4c7lUzqBWqTi5ui5CZP-68" value="" style="shape=partialRectangle;html=1;whiteSpace=wrap;connectable=0;strokeColor=inherit;overflow=hidden;fillColor=none;top=0;left=0;bottom=0;right=0;pointerEvents=1;" parent="g4c7lUzqBWqTi5ui5CZP-66" vertex="1">
          <mxGeometry x="36" width="35" height="40" as="geometry">
            <mxRectangle width="35" height="40" as="alternateBounds" />
          </mxGeometry>
        </mxCell>
        <mxCell id="g4c7lUzqBWqTi5ui5CZP-69" value="" style="shape=partialRectangle;html=1;whiteSpace=wrap;connectable=0;strokeColor=inherit;overflow=hidden;fillColor=none;top=0;left=0;bottom=0;right=0;pointerEvents=1;" parent="g4c7lUzqBWqTi5ui5CZP-66" vertex="1">
          <mxGeometry x="71" width="36" height="40" as="geometry">
            <mxRectangle width="36" height="40" as="alternateBounds" />
          </mxGeometry>
        </mxCell>
        <mxCell id="g4c7lUzqBWqTi5ui5CZP-70" value="" style="shape=partialRectangle;html=1;whiteSpace=wrap;connectable=0;strokeColor=inherit;overflow=hidden;fillColor=none;top=0;left=0;bottom=0;right=0;pointerEvents=1;" parent="g4c7lUzqBWqTi5ui5CZP-66" vertex="1">
          <mxGeometry x="107" width="35" height="40" as="geometry">
            <mxRectangle width="35" height="40" as="alternateBounds" />
          </mxGeometry>
        </mxCell>
        <mxCell id="g4c7lUzqBWqTi5ui5CZP-71" value="" style="shape=partialRectangle;html=1;whiteSpace=wrap;connectable=0;strokeColor=inherit;overflow=hidden;fillColor=none;top=0;left=0;bottom=0;right=0;pointerEvents=1;" parent="g4c7lUzqBWqTi5ui5CZP-66" vertex="1">
          <mxGeometry x="142" width="36" height="40" as="geometry">
            <mxRectangle width="36" height="40" as="alternateBounds" />
          </mxGeometry>
        </mxCell>
        <mxCell id="g4c7lUzqBWqTi5ui5CZP-72" value="" style="shape=partialRectangle;html=1;whiteSpace=wrap;connectable=0;strokeColor=inherit;overflow=hidden;fillColor=none;top=0;left=0;bottom=0;right=0;pointerEvents=1;" parent="g4c7lUzqBWqTi5ui5CZP-66" vertex="1">
          <mxGeometry x="178" width="35" height="40" as="geometry">
            <mxRectangle width="35" height="40" as="alternateBounds" />
          </mxGeometry>
        </mxCell>
        <mxCell id="g4c7lUzqBWqTi5ui5CZP-73" value="" style="shape=partialRectangle;html=1;whiteSpace=wrap;connectable=0;strokeColor=inherit;overflow=hidden;fillColor=none;top=0;left=0;bottom=0;right=0;pointerEvents=1;" parent="g4c7lUzqBWqTi5ui5CZP-66" vertex="1">
          <mxGeometry x="213" width="36" height="40" as="geometry">
            <mxRectangle width="36" height="40" as="alternateBounds" />
          </mxGeometry>
        </mxCell>
        <mxCell id="g4c7lUzqBWqTi5ui5CZP-74" value="" style="shape=partialRectangle;html=1;whiteSpace=wrap;connectable=0;strokeColor=inherit;overflow=hidden;fillColor=none;top=0;left=0;bottom=0;right=0;pointerEvents=1;" parent="g4c7lUzqBWqTi5ui5CZP-66" vertex="1">
          <mxGeometry x="249" width="35" height="40" as="geometry">
            <mxRectangle width="35" height="40" as="alternateBounds" />
          </mxGeometry>
        </mxCell>
        <mxCell id="g4c7lUzqBWqTi5ui5CZP-75" value="" style="shape=partialRectangle;html=1;whiteSpace=wrap;connectable=0;strokeColor=inherit;overflow=hidden;fillColor=none;top=0;left=0;bottom=0;right=0;pointerEvents=1;" parent="g4c7lUzqBWqTi5ui5CZP-66" vertex="1">
          <mxGeometry x="284" width="36" height="40" as="geometry">
            <mxRectangle width="36" height="40" as="alternateBounds" />
          </mxGeometry>
        </mxCell>
        <mxCell id="g4c7lUzqBWqTi5ui5CZP-76" value="" style="points=[[0.145,0.145,0],[0.5,0,0],[0.855,0.145,0],[1,0.5,0],[0.855,0.855,0],[0.5,1,0],[0.145,0.855,0],[0,0.5,0]];shape=mxgraph.bpmn.event;html=1;verticalLabelPosition=bottom;labelBackgroundColor=#ffffff;verticalAlign=top;align=center;perimeter=ellipsePerimeter;outlineConnect=0;aspect=fixed;outline=eventNonint;symbol=timer;" parent="1" vertex="1">
          <mxGeometry x="610" y="1629.5" width="25" height="25" as="geometry" />
        </mxCell>
        <mxCell id="g4c7lUzqBWqTi5ui5CZP-77" value="" style="points=[[0.145,0.145,0],[0.5,0,0],[0.855,0.145,0],[1,0.5,0],[0.855,0.855,0],[0.5,1,0],[0.145,0.855,0],[0,0.5,0]];shape=mxgraph.bpmn.event;html=1;verticalLabelPosition=bottom;labelBackgroundColor=#ffffff;verticalAlign=top;align=center;perimeter=ellipsePerimeter;outlineConnect=0;aspect=fixed;outline=eventNonint;symbol=timer;" parent="1" vertex="1">
          <mxGeometry x="610" y="1719.5" width="25" height="25" as="geometry" />
        </mxCell>
        <mxCell id="g4c7lUzqBWqTi5ui5CZP-79" value="" style="shape=singleArrow;whiteSpace=wrap;html=1;" parent="1" vertex="1">
          <mxGeometry x="630" y="1672" width="300" height="20" as="geometry" />
        </mxCell>
        <mxCell id="g4c7lUzqBWqTi5ui5CZP-82" style="edgeStyle=orthogonalEdgeStyle;rounded=0;orthogonalLoop=1;jettySize=auto;html=1;" parent="1" source="g4c7lUzqBWqTi5ui5CZP-80" target="g4c7lUzqBWqTi5ui5CZP-81" edge="1">
          <mxGeometry relative="1" as="geometry" />
        </mxCell>
        <mxCell id="g4c7lUzqBWqTi5ui5CZP-80" value="edm_job_spawning_servers_init.script" style="rounded=1;whiteSpace=wrap;html=1;fillColor=#a20025;fontColor=#ffffff;strokeColor=#6F0000;fontStyle=1;fontSize=14;" parent="1" vertex="1">
          <mxGeometry x="730" y="1790" width="270" height="50" as="geometry" />
        </mxCell>
        <mxCell id="g4c7lUzqBWqTi5ui5CZP-81" value="edm_job_spawning_servers_init.script&lt;br&gt;&lt;br&gt;This script will execute 2 kobernets deployment script as below&amp;nbsp;&lt;br&gt;&lt;br&gt;1. This will spaws an edm job execution server (named as free flow in this case ) and set its paralellism to 3 ( as in figure , also will be optimised as per client )&lt;br&gt;&lt;br&gt;2. This will spawn an edm job execution server ( named as Job Parallel server in this case ) and will not scale&amp;nbsp;&lt;br&gt;&lt;br&gt;&lt;span style=&quot;white-space: pre;&quot;&gt;&#x9;&lt;/span&gt;Note : This &quot;deployment&quot; is the state which kubernetes will always maintain, i.e. in case of&amp;nbsp;&lt;br&gt;&lt;span style=&quot;white-space: pre;&quot;&gt;&#x9;&lt;/span&gt;failures, the execution will happen again" style="shape=ext;double=1;rounded=1;whiteSpace=wrap;html=1;align=left;fillColor=#fff2cc;strokeColor=#d6b656;" parent="1" vertex="1">
          <mxGeometry x="1060" y="1705" width="540" height="220" as="geometry" />
        </mxCell>
        <mxCell id="p30hCLK2cFXqgigR1p2l-1" value="" style="sketch=0;html=1;dashed=0;whitespace=wrap;fillColor=#2875E2;strokeColor=#ffffff;points=[[0.005,0.63,0],[0.1,0.2,0],[0.9,0.2,0],[0.5,0,0],[0.995,0.63,0],[0.72,0.99,0],[0.5,1,0],[0.28,0.99,0]];verticalLabelPosition=bottom;align=center;verticalAlign=top;shape=mxgraph.kubernetes.icon;prIcon=job" parent="1" vertex="1">
          <mxGeometry x="400" y="1351" width="29" height="22.5" as="geometry" />
        </mxCell>
        <mxCell id="p30hCLK2cFXqgigR1p2l-2" value="" style="sketch=0;html=1;dashed=0;whitespace=wrap;fillColor=#2875E2;strokeColor=#ffffff;points=[[0.005,0.63,0],[0.1,0.2,0],[0.9,0.2,0],[0.5,0,0],[0.995,0.63,0],[0.72,0.99,0],[0.5,1,0],[0.28,0.99,0]];verticalLabelPosition=bottom;align=center;verticalAlign=top;shape=mxgraph.kubernetes.icon;prIcon=job" parent="1" vertex="1">
          <mxGeometry x="400" y="1439.5" width="29" height="22.5" as="geometry" />
        </mxCell>
        <mxCell id="p30hCLK2cFXqgigR1p2l-3" value="" style="sketch=0;html=1;dashed=0;whitespace=wrap;fillColor=#2875E2;strokeColor=#ffffff;points=[[0.005,0.63,0],[0.1,0.2,0],[0.9,0.2,0],[0.5,0,0],[0.995,0.63,0],[0.72,0.99,0],[0.5,1,0],[0.28,0.99,0]];verticalLabelPosition=bottom;align=center;verticalAlign=top;shape=mxgraph.kubernetes.icon;prIcon=job" parent="1" vertex="1">
          <mxGeometry x="400" y="1519.5" width="29" height="22.5" as="geometry" />
        </mxCell>
        <mxCell id="yTJ_lDOdrDvtbO3VLuqi-2" style="edgeStyle=orthogonalEdgeStyle;rounded=0;orthogonalLoop=1;jettySize=auto;html=1;exitX=1;exitY=0.5;exitDx=0;exitDy=0;entryX=0;entryY=0.75;entryDx=0;entryDy=0;" edge="1" parent="1" source="p30hCLK2cFXqgigR1p2l-4" target="ERThmsmV8_UrYjw-Gq1N-15">
          <mxGeometry relative="1" as="geometry" />
        </mxCell>
        <mxCell id="p30hCLK2cFXqgigR1p2l-4" value="&lt;font style=&quot;font-size: 18px;&quot;&gt;&lt;b style=&quot;&quot;&gt;Hangfire&lt;br&gt;Enqueuer&lt;/b&gt;&lt;/font&gt;" style="rounded=1;whiteSpace=wrap;html=1;" parent="1" vertex="1">
          <mxGeometry x="70.52" y="610" width="120" height="60" as="geometry" />
        </mxCell>
        <mxCell id="p30hCLK2cFXqgigR1p2l-42" value="" style="group" parent="1" vertex="1" connectable="0">
          <mxGeometry x="960" y="1090" width="1380" height="578" as="geometry" />
        </mxCell>
        <mxCell id="g4c7lUzqBWqTi5ui5CZP-83" value="&lt;font style=&quot;font-size: 18px;&quot;&gt;Deployed Hangfire server(s) will dequeue pipeline instances from queues and for every pipeline instance a Kubernetes job will be executed.&lt;br&gt;&amp;nbsp;This job will run inside a new Kubernetes Pod inside a Kubernetes Cluster.&amp;nbsp;&lt;/font&gt;" style="shape=ext;double=1;rounded=1;whiteSpace=wrap;html=1;" parent="p30hCLK2cFXqgigR1p2l-42" vertex="1">
          <mxGeometry x="200" y="38.5" width="1180" height="101" as="geometry" />
        </mxCell>
        <mxCell id="g4c7lUzqBWqTi5ui5CZP-85" value="C#" style="rounded=1;whiteSpace=wrap;html=1;fillColor=#66B2FF;fontColor=#ffffff;strokeColor=#6F0000;fontStyle=1;fontSize=14;" parent="p30hCLK2cFXqgigR1p2l-42" vertex="1">
          <mxGeometry x="1320" width="60" height="50" as="geometry" />
        </mxCell>
        <mxCell id="p30hCLK2cFXqgigR1p2l-7" style="edgeStyle=orthogonalEdgeStyle;rounded=0;orthogonalLoop=1;jettySize=auto;html=1;exitX=1;exitY=0.5;exitDx=0;exitDy=0;entryX=0;entryY=0.5;entryDx=0;entryDy=0;" parent="p30hCLK2cFXqgigR1p2l-42" source="p30hCLK2cFXqgigR1p2l-5" target="g4c7lUzqBWqTi5ui5CZP-83" edge="1">
          <mxGeometry relative="1" as="geometry" />
        </mxCell>
        <mxCell id="p30hCLK2cFXqgigR1p2l-5" value="&lt;font style=&quot;font-size: 18px;&quot;&gt;&lt;b style=&quot;&quot;&gt;Hangfire&lt;br&gt;Dequeuer&lt;/b&gt;&lt;/font&gt;" style="rounded=1;whiteSpace=wrap;html=1;" parent="p30hCLK2cFXqgigR1p2l-42" vertex="1">
          <mxGeometry y="59" width="120" height="60" as="geometry" />
        </mxCell>
        <mxCell id="p30hCLK2cFXqgigR1p2l-11" value="" style="rounded=0;whiteSpace=wrap;html=1;" parent="p30hCLK2cFXqgigR1p2l-42" vertex="1">
          <mxGeometry x="200" y="128" width="1180" height="450" as="geometry" />
        </mxCell>
        <mxCell id="p30hCLK2cFXqgigR1p2l-12" value="&lt;font style=&quot;font-size: 18px;&quot;&gt;Dequeue from Hangfire Queue&lt;/font&gt;" style="rounded=1;whiteSpace=wrap;html=1;" parent="p30hCLK2cFXqgigR1p2l-42" vertex="1">
          <mxGeometry x="250" y="267" width="150" height="101" as="geometry" />
        </mxCell>
        <mxCell id="p30hCLK2cFXqgigR1p2l-13" value="" style="rounded=1;whiteSpace=wrap;html=1;" parent="p30hCLK2cFXqgigR1p2l-42" vertex="1">
          <mxGeometry x="740" y="188" width="500" height="260" as="geometry" />
        </mxCell>
        <mxCell id="p30hCLK2cFXqgigR1p2l-14" style="edgeStyle=orthogonalEdgeStyle;rounded=0;orthogonalLoop=1;jettySize=auto;html=1;" parent="p30hCLK2cFXqgigR1p2l-42" source="p30hCLK2cFXqgigR1p2l-12" target="p30hCLK2cFXqgigR1p2l-13" edge="1">
          <mxGeometry relative="1" as="geometry" />
        </mxCell>
        <mxCell id="p30hCLK2cFXqgigR1p2l-15" value="&lt;font style=&quot;font-size: 18px;&quot;&gt;Trigger Kubernetes Jobs&lt;/font&gt;" style="text;html=1;strokeColor=none;fillColor=none;align=center;verticalAlign=middle;whiteSpace=wrap;rounded=0;" parent="p30hCLK2cFXqgigR1p2l-42" vertex="1">
          <mxGeometry x="452" y="285.5" width="220" height="30" as="geometry" />
        </mxCell>
        <mxCell id="p30hCLK2cFXqgigR1p2l-16" value="&lt;font style=&quot;font-size: 18px;&quot;&gt;Kubernetest Cluster&lt;/font&gt;" style="rounded=1;whiteSpace=wrap;html=1;" parent="p30hCLK2cFXqgigR1p2l-42" vertex="1">
          <mxGeometry x="910" y="158.5" width="170" height="60" as="geometry" />
        </mxCell>
        <mxCell id="p30hCLK2cFXqgigR1p2l-25" value="" style="group" parent="p30hCLK2cFXqgigR1p2l-42" vertex="1" connectable="0">
          <mxGeometry x="810" y="291.5" width="69" height="60" as="geometry" />
        </mxCell>
        <mxCell id="p30hCLK2cFXqgigR1p2l-17" value="&lt;font style=&quot;font-size: 18px;&quot;&gt;P1-1&lt;/font&gt;" style="rounded=1;whiteSpace=wrap;html=1;" parent="p30hCLK2cFXqgigR1p2l-25" vertex="1">
          <mxGeometry width="50" height="42.5" as="geometry" />
        </mxCell>
        <mxCell id="p30hCLK2cFXqgigR1p2l-22" value="" style="sketch=0;html=1;dashed=0;whitespace=wrap;fillColor=#2875E2;strokeColor=#ffffff;points=[[0.005,0.63,0],[0.1,0.2,0],[0.9,0.2,0],[0.5,0,0],[0.995,0.63,0],[0.72,0.99,0],[0.5,1,0],[0.28,0.99,0]];verticalLabelPosition=bottom;align=center;verticalAlign=top;shape=mxgraph.kubernetes.icon;prIcon=pod" parent="p30hCLK2cFXqgigR1p2l-25" vertex="1">
          <mxGeometry x="20" y="30" width="49" height="30" as="geometry" />
        </mxCell>
        <mxCell id="p30hCLK2cFXqgigR1p2l-27" value="" style="group" parent="p30hCLK2cFXqgigR1p2l-42" vertex="1" connectable="0">
          <mxGeometry x="890" y="291" width="69" height="60" as="geometry" />
        </mxCell>
        <mxCell id="p30hCLK2cFXqgigR1p2l-28" value="&lt;font style=&quot;font-size: 18px;&quot;&gt;P1-2&lt;/font&gt;" style="rounded=1;whiteSpace=wrap;html=1;" parent="p30hCLK2cFXqgigR1p2l-27" vertex="1">
          <mxGeometry width="50" height="42.5" as="geometry" />
        </mxCell>
        <mxCell id="p30hCLK2cFXqgigR1p2l-29" value="" style="sketch=0;html=1;dashed=0;whitespace=wrap;fillColor=#2875E2;strokeColor=#ffffff;points=[[0.005,0.63,0],[0.1,0.2,0],[0.9,0.2,0],[0.5,0,0],[0.995,0.63,0],[0.72,0.99,0],[0.5,1,0],[0.28,0.99,0]];verticalLabelPosition=bottom;align=center;verticalAlign=top;shape=mxgraph.kubernetes.icon;prIcon=pod" parent="p30hCLK2cFXqgigR1p2l-27" vertex="1">
          <mxGeometry x="20" y="30" width="49" height="30" as="geometry" />
        </mxCell>
        <mxCell id="p30hCLK2cFXqgigR1p2l-30" value="" style="group" parent="p30hCLK2cFXqgigR1p2l-42" vertex="1" connectable="0">
          <mxGeometry x="970" y="288" width="69" height="60" as="geometry" />
        </mxCell>
        <mxCell id="p30hCLK2cFXqgigR1p2l-31" value="&lt;font style=&quot;font-size: 18px;&quot;&gt;P1-3&lt;/font&gt;" style="rounded=1;whiteSpace=wrap;html=1;" parent="p30hCLK2cFXqgigR1p2l-30" vertex="1">
          <mxGeometry y="4" width="50" height="42.5" as="geometry" />
        </mxCell>
        <mxCell id="p30hCLK2cFXqgigR1p2l-32" value="" style="sketch=0;html=1;dashed=0;whitespace=wrap;fillColor=#2875E2;strokeColor=#ffffff;points=[[0.005,0.63,0],[0.1,0.2,0],[0.9,0.2,0],[0.5,0,0],[0.995,0.63,0],[0.72,0.99,0],[0.5,1,0],[0.28,0.99,0]];verticalLabelPosition=bottom;align=center;verticalAlign=top;shape=mxgraph.kubernetes.icon;prIcon=pod" parent="p30hCLK2cFXqgigR1p2l-30" vertex="1">
          <mxGeometry x="20" y="30" width="49" height="30" as="geometry" />
        </mxCell>
        <mxCell id="p30hCLK2cFXqgigR1p2l-33" value="" style="group" parent="p30hCLK2cFXqgigR1p2l-42" vertex="1" connectable="0">
          <mxGeometry x="1050" y="291" width="69" height="60" as="geometry" />
        </mxCell>
        <mxCell id="p30hCLK2cFXqgigR1p2l-34" value="&lt;font style=&quot;font-size: 18px;&quot;&gt;P1-4&lt;/font&gt;" style="rounded=1;whiteSpace=wrap;html=1;" parent="p30hCLK2cFXqgigR1p2l-33" vertex="1">
          <mxGeometry width="50" height="42.5" as="geometry" />
        </mxCell>
        <mxCell id="p30hCLK2cFXqgigR1p2l-35" value="" style="sketch=0;html=1;dashed=0;whitespace=wrap;fillColor=#2875E2;strokeColor=#ffffff;points=[[0.005,0.63,0],[0.1,0.2,0],[0.9,0.2,0],[0.5,0,0],[0.995,0.63,0],[0.72,0.99,0],[0.5,1,0],[0.28,0.99,0]];verticalLabelPosition=bottom;align=center;verticalAlign=top;shape=mxgraph.kubernetes.icon;prIcon=pod" parent="p30hCLK2cFXqgigR1p2l-33" vertex="1">
          <mxGeometry x="20" y="30" width="49" height="30" as="geometry" />
        </mxCell>
        <mxCell id="p30hCLK2cFXqgigR1p2l-36" value="" style="group" parent="p30hCLK2cFXqgigR1p2l-42" vertex="1" connectable="0">
          <mxGeometry x="1130" y="288" width="69" height="60" as="geometry" />
        </mxCell>
        <mxCell id="p30hCLK2cFXqgigR1p2l-39" value="" style="group" parent="p30hCLK2cFXqgigR1p2l-36" vertex="1" connectable="0">
          <mxGeometry y="2" width="69" height="58" as="geometry" />
        </mxCell>
        <mxCell id="p30hCLK2cFXqgigR1p2l-37" value="&lt;font style=&quot;font-size: 18px;&quot;&gt;P1-5&lt;/font&gt;" style="rounded=1;whiteSpace=wrap;html=1;" parent="p30hCLK2cFXqgigR1p2l-39" vertex="1">
          <mxGeometry width="50" height="42.5" as="geometry" />
        </mxCell>
        <mxCell id="p30hCLK2cFXqgigR1p2l-38" value="" style="sketch=0;html=1;dashed=0;whitespace=wrap;fillColor=#2875E2;strokeColor=#ffffff;points=[[0.005,0.63,0],[0.1,0.2,0],[0.9,0.2,0],[0.5,0,0],[0.995,0.63,0],[0.72,0.99,0],[0.5,1,0],[0.28,0.99,0]];verticalLabelPosition=bottom;align=center;verticalAlign=top;shape=mxgraph.kubernetes.icon;prIcon=pod" parent="p30hCLK2cFXqgigR1p2l-39" vertex="1">
          <mxGeometry x="20" y="28" width="49" height="30" as="geometry" />
        </mxCell>
        <mxCell id="p30hCLK2cFXqgigR1p2l-47" value="&lt;font style=&quot;font-size: 14px;&quot;&gt;5 Pods spawned in cluster with each having its own memory space and lifecycle&lt;/font&gt;" style="text;html=1;strokeColor=none;fillColor=none;align=center;verticalAlign=middle;whiteSpace=wrap;rounded=0;" parent="p30hCLK2cFXqgigR1p2l-42" vertex="1">
          <mxGeometry x="810" y="390" width="370" height="60" as="geometry" />
        </mxCell>
        <mxCell id="p30hCLK2cFXqgigR1p2l-45" style="edgeStyle=orthogonalEdgeStyle;rounded=0;orthogonalLoop=1;jettySize=auto;html=1;entryX=0.445;entryY=0.015;entryDx=0;entryDy=0;entryPerimeter=0;startArrow=classic;startFill=1;" parent="1" source="p30hCLK2cFXqgigR1p2l-43" target="g4c7lUzqBWqTi5ui5CZP-83" edge="1">
          <mxGeometry relative="1" as="geometry" />
        </mxCell>
        <mxCell id="p30hCLK2cFXqgigR1p2l-43" value="&lt;font style=&quot;font-size: 18px;&quot;&gt;EDM SQL Server&amp;nbsp;&lt;/font&gt;" style="shape=cylinder3;whiteSpace=wrap;html=1;boundedLbl=1;backgroundOutline=1;size=15;fillColor=#1ba1e2;fontColor=#ffffff;strokeColor=#006EAF;" parent="1" vertex="1">
          <mxGeometry x="1630" y="599" width="110" height="131" as="geometry" />
        </mxCell>
      </root>
    </mxGraphModel>
  </diagram>
</mxfile>
